<svg width="12" height="8" viewBox="0 0 12 8" fill="none" xmlns="http://www.w3.org/2000/svg">
<path d="M0.999998 6.83C1.18736 7.01625 1.44081 7.12079 1.705 7.12079C1.96918 7.12079 2.22264 7.01625 2.41 6.83L6 3.29L9.54 6.83C9.72736 7.01625 9.98081 7.12079 10.245 7.12079C10.5092 7.12079 10.7626 7.01625 10.95 6.83C11.0437 6.73703 11.1181 6.62643 11.1689 6.50457C11.2197 6.38271 11.2458 6.25201 11.2458 6.12C11.2458 5.98798 11.2197 5.85728 11.1689 5.73542C11.1181 5.61356 11.0437 5.50296 10.95 5.41L6.71 1.17C6.61704 1.07627 6.50643 1.00187 6.38458 0.951105C6.26272 0.900336 6.13201 0.874198 6 0.874198C5.86799 0.874197 5.73728 0.900336 5.61542 0.951105C5.49356 1.00187 5.38296 1.07627 5.29 1.17L0.999998 5.41C0.90627 5.50296 0.831876 5.61356 0.781107 5.73542C0.730338 5.85728 0.704199 5.98798 0.704199 6.12C0.704199 6.25201 0.730338 6.38271 0.781107 6.50457C0.831876 6.62643 0.90627 6.73703 0.999998 6.83Z" fill="#556987"/>
</svg>
